<?xml version="1.0" encoding="UTF-8" standalone="no"?>
<svg
   xmlns:dc="http://purl.org/dc/elements/1.1/"
   xmlns:cc="http://creativecommons.org/ns#"
   xmlns:rdf="http://www.w3.org/1999/02/22-rdf-syntax-ns#"
   xmlns:svg="http://www.w3.org/2000/svg"
   xmlns="http://www.w3.org/2000/svg"
   xmlns:sodipodi="http://sodipodi.sourceforge.net/DTD/sodipodi-0.dtd"
   xmlns:inkscape="http://www.inkscape.org/namespaces/inkscape"
   class="logo"
   width="44"
   height="30"
   viewBox="0 0 22 15"
   fill="none"
   version="1.1"
   id="svg4"
   sodipodi:docname="logo.svg"
   inkscape:version="0.92.5 (2060ec1f9f, 2020-04-08)">
  <metadata
     id="metadata10">
    <rdf:RDF>
      <cc:Work
         rdf:about="">
        <dc:format>image/svg+xml</dc:format>
        <dc:type
           rdf:resource="http://purl.org/dc/dcmitype/StillImage" />
      </cc:Work>
    </rdf:RDF>
  </metadata>
  <defs
     id="defs8" />
  <sodipodi:namedview
     pagecolor="#ffffff"
     bordercolor="#666666"
     borderopacity="1"
     objecttolerance="10"
     gridtolerance="10"
     guidetolerance="10"
     inkscape:pageopacity="0"
     inkscape:pageshadow="2"
     inkscape:window-width="1848"
     inkscape:window-height="1016"
     id="namedview6"
     showgrid="false"
     inkscape:snap-page="true"
     inkscape:snap-grids="true"
     inkscape:snap-text-baseline="true"
     inkscape:snap-object-midpoints="true"
     inkscape:snap-others="true"
     inkscape:snap-midpoints="true"
     inkscape:snap-center="true"
     inkscape:snap-smooth-nodes="true"
     inkscape:snap-intersection-paths="true"
     inkscape:object-paths="true"
     inkscape:snap-bbox="true"
     inkscape:bbox-paths="true"
     inkscape:bbox-nodes="true"
     inkscape:snap-bbox-midpoints="true"
     inkscape:snap-bbox-edge-midpoints="true"
     inkscape:zoom="15.733333"
     inkscape:cx="28.99573"
     inkscape:cy="10.508456"
     inkscape:window-x="72"
     inkscape:window-y="426"
     inkscape:window-maximized="1"
     inkscape:current-layer="svg4" />
  <path
     d="m 16.060379,9.6167732 a 16.8,16.8 0 0 1 -14.5000001,-0.3 c -0.26,-0.13 -0.58999998,0 -0.67999999,0.29 l -0.85,2.5399998 a 0.62,0.62 0 0 0 0.32,0.75 c 3.56999999,1.75 12.05000009,4.53 21.39000009,-2.06 a 0.62,0.62 0 0 0 0.2,-0.76 l -1.97,-4.4399998 c -0.13,-0.3 -0.47,-0.44 -0.78,-0.33 -2.26,0.83 -5.67,1.7 -9.22,1.19 a 16.2,16.2 0 0 0 5.8,-2.16 0.62,0.62 0 0 0 0.25,-0.78 l -1.21,-2.78 c -0.11,-0.24 -0.43,-0.3 -0.62,-0.1 -0.45,0.47 -0.95,0.82 -1.36,1.06 a 14.34,14.34 0 0 1 -8.1300001,1.74 c -0.28,-0.01 -0.54,0.16 -0.63,0.43 l -0.9,2.7 a 0.62,0.62 0 0 0 0.26,0.73 c 2.65,1.66 6.7300001,3.0599998 12.6500001,2.28 z"
     id="path2"
     style="fill:#916f6f"
     inkscape:connector-curvature="0" />
</svg>
